<svg id="visual" viewBox="0 0 900 450" width="900" height="450" xmlns="http://www.w3.org/2000/svg" xmlns:xlink="http://www.w3.org/1999/xlink" version="1.1"><rect x="0" y="0" width="900" height="450" fill="#7986cb"></rect><path d="M0 115L60 115L60 170L120 170L120 74L180 74L180 130L240 130L240 136L300 136L300 56L360 56L360 201L420 201L420 139L480 139L480 119L540 119L540 182L600 182L600 41L660 41L660 40L720 40L720 96L780 96L780 188L840 188L840 83L900 83L900 135L900 0L900 0L840 0L840 0L780 0L780 0L720 0L720 0L660 0L660 0L600 0L600 0L540 0L540 0L480 0L480 0L420 0L420 0L360 0L360 0L300 0L300 0L240 0L240 0L180 0L180 0L120 0L120 0L60 0L60 0L0 0Z" fill="#fff" stroke-linecap="square" stroke-linejoin="miter"></path></svg>