<svg id="visual" viewBox="0 0 900 450" width="900" height="450" xmlns="http://www.w3.org/2000/svg" xmlns:xlink="http://www.w3.org/1999/xlink" version="1.1"><rect x="0" y="0" width="900" height="450" fill="#7986cb"></rect><path d="M0 333L60 333L60 278L120 278L120 374L180 374L180 318L240 318L240 312L300 312L300 392L360 392L360 247L420 247L420 309L480 309L480 329L540 329L540 266L600 266L600 407L660 407L660 408L720 408L720 352L780 352L780 260L840 260L840 365L900 365L900 313L900 451L900 451L840 451L840 451L780 451L780 451L720 451L720 451L660 451L660 451L600 451L600 451L540 451L540 451L480 451L480 451L420 451L420 451L360 451L360 451L300 451L300 451L240 451L240 451L180 451L180 451L120 451L120 451L60 451L60 451L0 451Z" fill="#fff" stroke-linecap="square" stroke-linejoin="miter"></path></svg>