<?xml version="1.0" standalone="no"?><svg xmlns="http://www.w3.org/2000/svg" viewBox="0 0 1440 320"><path fill="#00004f" fill-opacity="0.6" d="M0,192L10,165.3C20,139,40,85,60,101.3C80,117,100,203,120,224C140,245,160,203,180,181.3C200,160,220,160,240,144C260,128,280,96,300,117.3C320,139,340,213,360,256C380,299,400,309,420,288C440,267,460,213,480,208C500,203,520,245,540,266.7C560,288,580,288,600,240C620,192,640,96,660,90.7C680,85,700,171,720,192C740,213,760,171,780,165.3C800,160,820,192,840,192C860,192,880,160,900,144C920,128,940,128,960,149.3C980,171,1000,213,1020,202.7C1040,192,1060,128,1080,101.3C1100,75,1120,85,1140,106.7C1160,128,1180,160,1200,170.7C1220,181,1240,171,1260,186.7C1280,203,1300,245,1320,256C1340,267,1360,245,1380,208C1400,171,1420,117,1430,90.7L1440,64L1440,320L1430,320C1420,320,1400,320,1380,320C1360,320,1340,320,1320,320C1300,320,1280,320,1260,320C1240,320,1220,320,1200,320C1180,320,1160,320,1140,320C1120,320,1100,320,1080,320C1060,320,1040,320,1020,320C1000,320,980,320,960,320C940,320,920,320,900,320C880,320,860,320,840,320C820,320,800,320,780,320C760,320,740,320,720,320C700,320,680,320,660,320C640,320,620,320,600,320C580,320,560,320,540,320C520,320,500,320,480,320C460,320,440,320,420,320C400,320,380,320,360,320C340,320,320,320,300,320C280,320,260,320,240,320C220,320,200,320,180,320C160,320,140,320,120,320C100,320,80,320,60,320C40,320,20,320,10,320L0,320Z"></path></svg>