<svg id="visual" viewBox="0 0 900 450" width="900" height="450" xmlns="http://www.w3.org/2000/svg" xmlns:xlink="http://www.w3.org/1999/xlink" version="1.1"><rect x="0" y="0" width="900" height="450" fill="#514aac"></rect><path d="M0 294L50 294L50 318L100 318L100 221L150 221L150 140L200 140L200 357L250 357L250 262L300 262L300 102L350 102L350 128L400 128L400 393L450 393L450 270L500 270L500 343L550 343L550 369L600 369L600 94L650 94L650 186L700 186L700 192L750 192L750 359L800 359L800 166L850 166L850 253L900 253L900 126L900 451L900 451L850 451L850 451L800 451L800 451L750 451L750 451L700 451L700 451L650 451L650 451L600 451L600 451L550 451L550 451L500 451L500 451L450 451L450 451L400 451L400 451L350 451L350 451L300 451L300 451L250 451L250 451L200 451L200 451L150 451L150 451L100 451L100 451L50 451L50 451L0 451Z" fill="#7986cb" stroke-linecap="square" stroke-linejoin="miter"></path></svg>